<?xml version="1.0" encoding="UTF-8"?>
<!DOCTYPE svg PUBLIC "-//W3C//DTD SVG 1.1//EN" "http://www.w3.org/Graphics/SVG/1.1/DTD/svg11.dtd">
<!-- Creator: CorelDRAW 2020 (64-Bit) -->
<svg xmlns="http://www.w3.org/2000/svg" xml:space="preserve" width="111px" height="175px" version="1.1" shape-rendering="geometricPrecision" text-rendering="geometricPrecision" image-rendering="optimizeQuality" fill-rule="evenodd" clip-rule="evenodd"
viewBox="0 0 33.81 53.32"
 xmlns:xlink="http://www.w3.org/1999/xlink"
 xmlns:xodm="http://www.corel.com/coreldraw/odm/2003">
 <g id="Layer_x0020_1">
  <metadata id="CorelCorpID_0Corel-Layer"/>
  <path fill="#E4007D" d="M15.73 6.15c13.83,-1.67 16.62,19.61 2.7,21.46 -14.33,1.92 -17.28,-19.7 -2.7,-21.46zm-2.14 27.55l0.04 5.55c-3.34,0.09 -8.02,-0.89 -8.14,2.99 -0.13,4.16 4.8,3.19 8.13,3.27 0.05,3.32 -0.85,7.87 3.29,7.8 4.24,-0.06 2.59,-4.51 3.26,-7.81 3.52,-0.2 8.51,1.01 8.35,-3.25 -0.16,-4.27 -5.22,-2.56 -8.46,-3.1l0.01 -5.59c8.61,-2.6 14.48,-8.45 13.67,-18.17 -0.71,-8.42 -7.85,-15.39 -16.83,-15.39 -16.84,0 -23.34,21.88 -9.07,31.18 1.8,1.17 4.48,1.7 5.75,2.52z"/>
 </g>
</svg>
