<?xml version="1.0" encoding="UTF-8"?>
<!DOCTYPE svg PUBLIC "-//W3C//DTD SVG 1.1//EN" "http://www.w3.org/Graphics/SVG/1.1/DTD/svg11.dtd">
<!-- Creator: CorelDRAW 2020 (64-Bit) -->
<svg xmlns="http://www.w3.org/2000/svg" xml:space="preserve" width="155px" height="153px" version="1.1" shape-rendering="geometricPrecision" text-rendering="geometricPrecision" image-rendering="optimizeQuality" fill-rule="evenodd" clip-rule="evenodd"
viewBox="0 0 133.29 131.42"
 xmlns:xlink="http://www.w3.org/1999/xlink"
 xmlns:xodm="http://www.corel.com/coreldraw/odm/2003">
 <g id="Layer_x0020_1">
  <metadata id="CorelCorpID_0Corel-Layer"/>
  <path fill="#37A9E0" d="M77.6 89.35c-2.7,15.07 -17.9,27.76 -35.75,24.23 -39.7,-7.83 -28.03,-67.89 11.82,-59.98 14.82,2.94 27.22,17.48 23.93,35.75zm24.49 -70.45l-25.47 25.99c-8.65,-3.19 -16.34,-11.31 -35.2,-8.74 -41.33,5.65 -53.33,56.22 -28.72,79.93 7.05,6.79 15.28,13.18 28.88,14.94 31.62,4.09 58.93,-23.97 52.97,-56.24 -1.34,-7.29 -4.45,-11.02 -5.84,-16.43l25.55 -25.56c0.37,7.31 -0.95,16.08 3.42,19.65 5.06,4.14 13.67,2 15.1,-4.84 0.86,-4.16 0.63,-41.71 -0.57,-44.12 -2.41,-4.88 -13.29,-3.2 -19.58,-3.2 -6.29,0 -17.57,-0.66 -23.27,0.14 -6.38,0.9 -11.05,8.16 -6.49,14.5 3.81,5.3 11.9,3.38 19.22,3.98z"/>
 </g>
</svg>
